<svg width="52" height="52" viewBox="0 0 52 52" fill="none" xmlns="http://www.w3.org/2000/svg">
<g filter="url(#filter0_d)">
<path d="M48 22C48 28.0751 45.5376 33.5751 41.5564 37.5564C37.5751 41.5376 32.0751 44 26 44C19.9249 44 14.4249 41.5376 10.4437 37.5564C6.46243 33.5751 4 28.0751 4 22C4 15.9249 6.46243 10.4249 10.4437 6.44365C14.4249 2.46243 19.9249 0 26 0C32.0751 0 37.5751 2.46243 41.5564 6.44365C45.5376 10.4249 48 15.9249 48 22Z" fill="white" fill-opacity="0.1"/>
<g clip-path="url(#clip0)">
<path d="M29.3308 15.3208H31.1566V12.1408C30.8416 12.0975 29.7583 12 28.4966 12C25.8641 12 24.0608 13.6558 24.0608 16.6992V19.5H21.1558V23.055H24.0608V32H27.6224V23.0558H30.4099L30.8524 19.5008H27.6216V17.0517C27.6224 16.0242 27.8991 15.3208 29.3308 15.3208Z" fill="white"/>
</g>
</g>
<defs>
<filter id="filter0_d" x="0" y="0" width="52" height="52" filterUnits="userSpaceOnUse" color-interpolation-filters="sRGB">
<feFlood flood-opacity="0" result="BackgroundImageFix"/>
<feColorMatrix in="SourceAlpha" type="matrix" values="0 0 0 0 0 0 0 0 0 0 0 0 0 0 0 0 0 0 127 0"/>
<feOffset dy="4"/>
<feGaussianBlur stdDeviation="2"/>
<feColorMatrix type="matrix" values="0 0 0 0 0 0 0 0 0 0 0 0 0 0 0 0 0 0 0.25 0"/>
<feBlend mode="normal" in2="BackgroundImageFix" result="effect1_dropShadow"/>
<feBlend mode="normal" in="SourceGraphic" in2="effect1_dropShadow" result="shape"/>
</filter>
<clipPath id="clip0">
<rect width="20" height="20" fill="white" transform="translate(16 12)"/>
</clipPath>
</defs>
</svg>
